<svg xmlns="http://www.w3.org/2000/svg" width="69" height="69" viewBox="0 0 69 69"><g><g><path fill="#ccc" d="M51.98 30.026c0 .226-.226.522-.367.664-1.033 1.03-2.292 1.694-3.763 1.694-.665 0-1.4-.07-2.065-.141-1.103-.141-2.588-1.54-2.362-3.009.141-.946.297-1.977.438-3.008.368-1.765.665-3.531.962-5.296v-.368c0-.734-.226-1.03-.962-1.101-.368 0-.664-.071-.962-.142-.367-.155-.508-.438-.508-.664.07-.296.296-.522.664-.593.226-.07.438-.07.665-.07h5.304c.665 0 1.104.296 1.104.96.084.523-.071 1.116-.142 1.624-.368 1.992-.736 4.04-1.103 6.031-.142.664-.297 1.328-.368 1.992-.07.367 0 .664.07 1.031.142.367.44.664.878.593.367-.07.665-.155 1.032-.296.297-.07.51-.297.807-.368.438-.212.735.085.678.467zm10.665 7.104c-7.143 7.147-18.048 8.248-26.365 3.39l-.07-.07c-3.24 2.499-6.776 2.866-9.28 2.499-.82-.155-.96-1.257-.225-1.624 2.22-1.102 3.691-3.305 4.497-5.07l-.141-.142c-7.596-8.53-7.298-21.554.877-29.717 8.458-8.531 22.234-8.531 30.707 0 8.473 8.46 8.473 22.217 0 30.734zm1.33-15.353c0-9.195-7.44-16.624-16.648-16.624-9.208 0-16.648 7.415-16.648 16.61s7.44 16.624 16.648 16.624c9.208 0 16.647-7.415 16.647-16.61zM47.17 57.144c1.768 1.765 1.768 3.969 0 5.805-1.174 1.243-2.503 2.345-3.607 3.672-1.683 1.85-3.748 2.5-6.18 2.36-3.38-.227-6.55-1.4-9.647-2.868-6.86-3.305-12.744-7.938-17.68-13.828-3.607-4.336-6.62-8.969-8.614-14.336-.962-2.57-1.627-5.212-1.4-7.938.155-1.68.806-3.15 2.065-4.406l3.974-3.97c1.768-1.694 3.975-1.694 5.672 0 1.103 1.032 2.136 2.133 3.24 3.235l3.168 3.164c1.838 1.836 1.838 3.969 0 5.805-1.33 1.328-2.575 2.641-3.975 3.898-.368.368-.368.593-.226 1.031.89 2.133 2.135 3.969 3.535 5.735 2.872 3.517 6.11 6.61 9.944 9.04.807.522 1.768.889 2.574 1.398.438.211.736.14 1.104-.226l3.974-3.97c1.768-1.765 3.975-1.765 5.672 0l6.407 6.399zm-2.206-43.319c.07-1.54 1.33-2.797 2.87-2.797 1.543 0 2.802 1.328 2.802 2.867a2.805 2.805 0 0 1-2.801 2.797c-1.542 0-2.8-1.243-2.871-2.867z"/></g></g></svg>