<svg xmlns="http://www.w3.org/2000/svg" width="96" height="64" viewBox="0 0 96 64"><g><g><path fill="#ccc" d="M96 46.938v5.139c0 2.182-1.731 4.047-4.013 4.047H86.99C85.692 60.607 81.56 64 76.564 64c-4.997 0-9.128-3.273-10.426-7.876H30.629C29.331 60.607 25.2 64 20.203 64c-4.997 0-9.128-3.273-10.426-7.876H4.013A4.021 4.021 0 0 1 0 52.077V4.067C0 1.825 1.652 0 3.698 0h42.768c2.045 0 3.698 1.825 3.698 4.067V8.49H66.02c2.4 0 4.465 1.21 5.764 2.956.118.1.216.337.334.436l8.36 12.697 4.88.774c3.914 0 7.062 3.174 7.062 7.122v10.396c1.947.218 3.58 1.964 3.58 4.066zM25.633 53.05c0-2.956-2.38-5.476-5.43-5.476-2.93 0-5.43 2.52-5.43 5.476s2.381 5.475 5.43 5.475c3.05 0 5.43-2.519 5.43-5.475zM57.6 24.977h15.324c.394 0 .63-.456.414-.793l-6.709-10.059a.462.462 0 0 0-.413-.218H57.6a.51.51 0 0 0-.511.516v10.058a.51.51 0 0 0 .51.516zm24.393 28.072c0-2.956-2.38-5.476-5.43-5.476-2.93 0-5.429 2.52-5.429 5.476s2.38 5.475 5.43 5.475c2.93 0 5.43-2.519 5.43-5.475z"/></g></g></svg>