<svg xmlns="http://www.w3.org/2000/svg" width="61" height="71" viewBox="0 0 61 71"><g><g><path fill="#ccc" d="M61 71H0c.397-1.522.394-18.1 5.026-19.965l14.384-5.798 3.369-2.867a2.227 2.227 0 0 1 3.027.123l4.696 4.708 4.683-4.706a2.225 2.225 0 0 1 3.029-.125l3.369 2.868 14.384 5.797C60.6 52.897 60.603 69.482 61 71zM49.962 17.558v6.849c0 1.669-1.338 3.022-2.99 3.022l-2.697.001c-1.114 2.057-3.908 5.699-9.85 6.18a1.88 1.88 0 0 0-1.5-.75h-1.727a1.902 1.902 0 0 0-1.892 1.912c0 1.057.847 1.913 1.892 1.913h1.726c.656 0 1.233-.337 1.572-.848 3.696-.272 6.338-1.59 8.156-3.032-2.38 5.473-5.972 8.442-12.152 8.442-6.18 0-12.102-5.013-13.77-13.825l-2.702.007c-1.652 0-2.99-1.353-2.99-3.022v-6.85c0-1.069.551-2.006 1.381-2.544C13.42 6.582 21.145 0 30.5 0c9.355 0 17.083 6.582 18.082 15.013a3.025 3.025 0 0 1 1.381 2.545zm-4.847-2.823C43.986 8.332 37.863 3.425 30.5 3.425s-13.486 4.907-14.615 11.31c.35.134.669.333.942.582 1.765-5.623 6.862-8.966 13.673-8.966 6.81 0 11.904 3.344 13.668 8.97.274-.251.594-.451.947-.586z"/></g></g></svg>